<svg width="21" height="18" viewBox="0 0 21 18" fill="none" xmlns="http://www.w3.org/2000/svg">
<path d="M21 9C21 13.9706 16.9705 18 12 18C10.1524 18.0061 8.3488 17.4363 6.83997 16.37C6.71942 16.2831 6.64273 16.148 6.62997 16C6.61804 15.8559 6.6691 15.7136 6.76997 15.61L7.48997 14.88C7.65899 14.7127 7.92242 14.6876 8.11997 14.82C9.26618 15.5925 10.6177 16.0036 12 16C15.866 16 19 12.866 19 9C19 5.13401 15.866 2 12 2C8.13398 2 4.99997 5.13401 4.99997 9H7.35997C7.49556 8.99803 7.6259 9.05234 7.71997 9.15L7.91997 9.35C8.01463 9.44388 8.06787 9.57168 8.06787 9.705C8.06787 9.83832 8.01463 9.96612 7.91997 10.06L4.38997 13.6C4.19216 13.7918 3.87779 13.7918 3.67997 13.6L0.149974 10.06C0.055318 9.96612 0.0020752 9.83832 0.0020752 9.705C0.0020752 9.57168 0.055318 9.44388 0.149974 9.35L0.349974 9.15C0.44405 9.05234 0.574389 8.99803 0.709974 9H2.99997C2.99997 4.02944 7.02941 0 12 0C16.9705 0 21 4.02944 21 9Z" fill="#0052EA"/>
</svg>
