<svg width="14" height="14" viewBox="0 0 14 14" fill="none" xmlns="http://www.w3.org/2000/svg">
<path d="M14 6.5V7.5C14 7.63261 13.9473 7.75979 13.8536 7.85355C13.7598 7.94732 13.6326 8 13.5 8H8V13.5C8 13.6326 7.94732 13.7598 7.85355 13.8536C7.75979 13.9473 7.63261 14 7.5 14H6.5C6.36739 14 6.24021 13.9473 6.14645 13.8536C6.05268 13.7598 6 13.6326 6 13.5V8H0.5C0.367392 8 0.240215 7.94732 0.146447 7.85355C0.0526785 7.75979 0 7.63261 0 7.5V6.5C0 6.36739 0.0526785 6.24021 0.146447 6.14645C0.240215 6.05268 0.367392 6 0.5 6H6V0.5C6 0.367392 6.05268 0.240215 6.14645 0.146447C6.24021 0.0526785 6.36739 0 6.5 0H7.5C7.63261 0 7.75979 0.0526785 7.85355 0.146447C7.94732 0.240215 8 0.367392 8 0.5V6H13.5C13.6326 6 13.7598 6.05268 13.8536 6.14645C13.9473 6.24021 14 6.36739 14 6.5Z" fill="#0052EA"/>
</svg>
