<svg width="12" height="12" viewBox="0 0 12 12" fill="none" xmlns="http://www.w3.org/2000/svg">
<path d="M11.85 10.44C11.9446 10.5339 11.9979 10.6617 11.9979 10.795C11.9979 10.9283 11.9446 11.0561 11.85 11.15L11.15 11.85C11.0561 11.9446 10.9283 11.9979 10.795 11.9979C10.6617 11.9979 10.5339 11.9446 10.44 11.85L5.99997 7.40997L1.55997 11.85C1.46609 11.9446 1.33829 11.9979 1.20497 11.9979C1.07166 11.9979 0.943858 11.9446 0.849974 11.85L0.149974 11.15C0.055318 11.0561 0.0020752 10.9283 0.0020752 10.795C0.0020752 10.6617 0.055318 10.5339 0.149974 10.44L4.58997 5.99997L0.149974 1.55997C0.055318 1.46609 0.0020752 1.33829 0.0020752 1.20497C0.0020752 1.07166 0.055318 0.943858 0.149974 0.849974L0.849974 0.149974C0.943858 0.055318 1.07166 0.0020752 1.20497 0.0020752C1.33829 0.0020752 1.46609 0.055318 1.55997 0.149974L5.99997 4.58997L10.44 0.149974C10.5339 0.055318 10.6617 0.0020752 10.795 0.0020752C10.9283 0.0020752 11.0561 0.055318 11.15 0.149974L11.85 0.849974C11.9446 0.943858 11.9979 1.07166 11.9979 1.20497C11.9979 1.33829 11.9446 1.46609 11.85 1.55997L7.40997 5.99997L11.85 10.44Z" fill="#212121"/>
</svg>
